<mxfile host="app.diagrams.net" modified="2023-09-25T21:06:17.171Z" agent="Mozilla/5.0 (X11; Ubuntu; Linux x86_64; rv:109.0) Gecko/20100101 Firefox/117.0" etag="GVeOBSl2NGdtMalVqjaC" version="21.8.2" type="google">
  <diagram name="Page-1" id="kw1Xu9A0a2fsQxrIxcN7">
    <mxGraphModel grid="1" page="1" gridSize="10" guides="1" tooltips="1" connect="1" arrows="1" fold="1" pageScale="1" pageWidth="850" pageHeight="1100" math="0" shadow="0">
      <root>
        <mxCell id="0" />
        <mxCell id="1" parent="0" />
        <mxCell id="PA0zK9mzqZPHL-0ntuuw-31" value="" style="rounded=0;whiteSpace=wrap;html=1;" vertex="1" parent="1">
          <mxGeometry x="360" y="100" width="280" height="160" as="geometry" />
        </mxCell>
        <mxCell id="PA0zK9mzqZPHL-0ntuuw-50" style="edgeStyle=orthogonalEdgeStyle;rounded=0;orthogonalLoop=1;jettySize=auto;html=1;exitX=1;exitY=0.5;exitDx=0;exitDy=0;entryX=0;entryY=0.5;entryDx=0;entryDy=0;" edge="1" parent="1" source="PA0zK9mzqZPHL-0ntuuw-29" target="PA0zK9mzqZPHL-0ntuuw-31">
          <mxGeometry relative="1" as="geometry" />
        </mxCell>
        <mxCell id="PA0zK9mzqZPHL-0ntuuw-51" value="&lt;div&gt;They are stored&lt;br&gt;in a standard format&lt;br&gt;(alphabetical order)&lt;br&gt;&lt;/div&gt;" style="edgeLabel;html=1;align=center;verticalAlign=middle;resizable=0;points=[];" connectable="0" vertex="1" parent="PA0zK9mzqZPHL-0ntuuw-50">
          <mxGeometry x="-0.146" relative="1" as="geometry">
            <mxPoint x="11" y="-25" as="offset" />
          </mxGeometry>
        </mxCell>
        <mxCell id="PA0zK9mzqZPHL-0ntuuw-60" value="The signals are normalized,&lt;br&gt;smoothed and resampled&lt;br&gt;to a same time step value" style="edgeLabel;html=1;align=center;verticalAlign=middle;resizable=0;points=[];" connectable="0" vertex="1" parent="PA0zK9mzqZPHL-0ntuuw-50">
          <mxGeometry x="-0.0018" y="-1" relative="1" as="geometry">
            <mxPoint y="29" as="offset" />
          </mxGeometry>
        </mxCell>
        <mxCell id="PA0zK9mzqZPHL-0ntuuw-68" style="edgeStyle=orthogonalEdgeStyle;rounded=0;orthogonalLoop=1;jettySize=auto;html=1;exitX=0.5;exitY=1;exitDx=0;exitDy=0;entryX=0;entryY=0.5;entryDx=0;entryDy=0;" edge="1" parent="1" source="PA0zK9mzqZPHL-0ntuuw-29" target="PA0zK9mzqZPHL-0ntuuw-52">
          <mxGeometry relative="1" as="geometry" />
        </mxCell>
        <mxCell id="PA0zK9mzqZPHL-0ntuuw-69" value="A mask to indicate which&lt;br&gt; neurons were recorded." style="edgeLabel;html=1;align=center;verticalAlign=middle;resizable=0;points=[];" connectable="0" vertex="1" parent="PA0zK9mzqZPHL-0ntuuw-68">
          <mxGeometry x="0.039" y="2" relative="1" as="geometry">
            <mxPoint x="14" y="-13" as="offset" />
          </mxGeometry>
        </mxCell>
        <mxCell id="PA0zK9mzqZPHL-0ntuuw-29" value="" style="rounded=0;whiteSpace=wrap;html=1;" vertex="1" parent="1">
          <mxGeometry x="40" y="115" width="160" height="130" as="geometry" />
        </mxCell>
        <mxCell id="PA0zK9mzqZPHL-0ntuuw-4" value="ADLR" style="rounded=1;whiteSpace=wrap;html=1;fillColor=#dae8fc;strokeColor=#6c8ebf;" vertex="1" parent="1">
          <mxGeometry x="50" y="125" width="140" height="20" as="geometry" />
        </mxCell>
        <mxCell id="PA0zK9mzqZPHL-0ntuuw-5" value="VD9" style="rounded=1;whiteSpace=wrap;html=1;fillColor=#e1d5e7;strokeColor=#9673a6;" vertex="1" parent="1">
          <mxGeometry x="50" y="155" width="140" height="20" as="geometry" />
        </mxCell>
        <mxCell id="PA0zK9mzqZPHL-0ntuuw-6" value="PLNR" style="rounded=1;whiteSpace=wrap;html=1;fillColor=#ffe6cc;strokeColor=#d79b00;" vertex="1" parent="1">
          <mxGeometry x="50" y="185" width="140" height="20" as="geometry" />
        </mxCell>
        <mxCell id="PA0zK9mzqZPHL-0ntuuw-9" value="..." style="text;html=1;align=center;verticalAlign=middle;resizable=0;points=[];autosize=1;strokeColor=none;fillColor=none;" vertex="1" parent="1">
          <mxGeometry x="105" y="205" width="30" height="30" as="geometry" />
        </mxCell>
        <mxCell id="PA0zK9mzqZPHL-0ntuuw-11" value="A subset of neurons is recorded" style="text;html=1;strokeColor=none;fillColor=none;align=center;verticalAlign=middle;whiteSpace=wrap;rounded=0;" vertex="1" parent="1">
          <mxGeometry x="40" y="85" width="160" height="30" as="geometry" />
        </mxCell>
        <mxCell id="PA0zK9mzqZPHL-0ntuuw-14" value="&lt;div&gt;ADAL&lt;/div&gt;" style="rounded=1;whiteSpace=wrap;html=1;rotation=-90;" vertex="1" parent="1">
          <mxGeometry x="310" y="170" width="140" height="20" as="geometry" />
        </mxCell>
        <mxCell id="PA0zK9mzqZPHL-0ntuuw-22" value="&lt;font style=&quot;font-size: 10px;&quot;&gt;idx 0&lt;br&gt;&lt;/font&gt;" style="rounded=1;whiteSpace=wrap;html=1;fillColor=none;strokeColor=none;" vertex="1" parent="1">
          <mxGeometry x="365" y="80" width="30" height="20" as="geometry" />
        </mxCell>
        <mxCell id="PA0zK9mzqZPHL-0ntuuw-25" value="&lt;font style=&quot;font-size: 10px;&quot;&gt;idx 300&amp;nbsp; idx 301&lt;br&gt;&lt;/font&gt;" style="rounded=1;whiteSpace=wrap;html=1;fillColor=none;strokeColor=none;" vertex="1" parent="1">
          <mxGeometry x="565.5" y="80" width="77.5" height="20" as="geometry" />
        </mxCell>
        <mxCell id="PA0zK9mzqZPHL-0ntuuw-35" value="&lt;div&gt;ADLR&lt;/div&gt;" style="rounded=1;whiteSpace=wrap;html=1;rotation=-90;fillColor=#dae8fc;strokeColor=#6c8ebf;" vertex="1" parent="1">
          <mxGeometry x="370" y="170" width="140" height="20" as="geometry" />
        </mxCell>
        <mxCell id="PA0zK9mzqZPHL-0ntuuw-36" value="AFDL" style="rounded=1;whiteSpace=wrap;html=1;rotation=-90;" vertex="1" parent="1">
          <mxGeometry x="400" y="170" width="140" height="20" as="geometry" />
        </mxCell>
        <mxCell id="PA0zK9mzqZPHL-0ntuuw-38" value="PLNR" style="rounded=1;whiteSpace=wrap;html=1;rotation=-90;fillColor=#ffe6cc;strokeColor=#d79b00;" vertex="1" parent="1">
          <mxGeometry x="460" y="170" width="140" height="20" as="geometry" />
        </mxCell>
        <mxCell id="PA0zK9mzqZPHL-0ntuuw-40" value="VD8" style="rounded=1;whiteSpace=wrap;html=1;rotation=-90;" vertex="1" parent="1">
          <mxGeometry x="520" y="170" width="140" height="20" as="geometry" />
        </mxCell>
        <mxCell id="PA0zK9mzqZPHL-0ntuuw-41" value="VD9" style="rounded=1;whiteSpace=wrap;html=1;rotation=-90;fillColor=#e1d5e7;strokeColor=#9673a6;" vertex="1" parent="1">
          <mxGeometry x="550" y="170" width="140" height="20" as="geometry" />
        </mxCell>
        <mxCell id="PA0zK9mzqZPHL-0ntuuw-42" value="..." style="text;html=1;align=center;verticalAlign=middle;resizable=0;points=[];autosize=1;strokeColor=none;fillColor=none;" vertex="1" parent="1">
          <mxGeometry x="395" y="165" width="30" height="30" as="geometry" />
        </mxCell>
        <mxCell id="PA0zK9mzqZPHL-0ntuuw-43" value="&lt;font style=&quot;font-size: 10px;&quot;&gt;idx 7&lt;br&gt;&lt;/font&gt;" style="rounded=1;whiteSpace=wrap;html=1;fillColor=none;strokeColor=none;" vertex="1" parent="1">
          <mxGeometry x="425" y="80" width="30" height="20" as="geometry" />
        </mxCell>
        <mxCell id="PA0zK9mzqZPHL-0ntuuw-44" value="&lt;font style=&quot;font-size: 10px;&quot;&gt;idx 153&lt;br&gt;&lt;/font&gt;" style="rounded=1;whiteSpace=wrap;html=1;fillColor=none;strokeColor=none;" vertex="1" parent="1">
          <mxGeometry x="512.5" y="80" width="35" height="20" as="geometry" />
        </mxCell>
        <mxCell id="PA0zK9mzqZPHL-0ntuuw-46" value="..." style="text;html=1;align=center;verticalAlign=middle;resizable=0;points=[];autosize=1;strokeColor=none;fillColor=none;" vertex="1" parent="1">
          <mxGeometry x="485" y="165" width="30" height="30" as="geometry" />
        </mxCell>
        <mxCell id="PA0zK9mzqZPHL-0ntuuw-47" value="&lt;font style=&quot;font-size: 10px;&quot;&gt;idx 8&lt;br&gt;&lt;/font&gt;" style="rounded=1;whiteSpace=wrap;html=1;fillColor=none;strokeColor=none;" vertex="1" parent="1">
          <mxGeometry x="455" y="80" width="30" height="20" as="geometry" />
        </mxCell>
        <mxCell id="PA0zK9mzqZPHL-0ntuuw-49" value="..." style="text;html=1;align=center;verticalAlign=middle;resizable=0;points=[];autosize=1;strokeColor=none;fillColor=none;" vertex="1" parent="1">
          <mxGeometry x="547.5" y="165" width="30" height="30" as="geometry" />
        </mxCell>
        <mxCell id="PA0zK9mzqZPHL-0ntuuw-52" value="" style="rounded=0;whiteSpace=wrap;html=1;" vertex="1" parent="1">
          <mxGeometry x="360" y="290" width="280" height="30" as="geometry" />
        </mxCell>
        <mxCell id="PA0zK9mzqZPHL-0ntuuw-53" value="&lt;div&gt;&lt;br&gt;&lt;/div&gt;" style="rounded=1;whiteSpace=wrap;html=1;rotation=-90;fillColor=#f8cecc;strokeColor=#b85450;" vertex="1" parent="1">
          <mxGeometry x="375" y="295" width="10" height="20" as="geometry" />
        </mxCell>
        <mxCell id="PA0zK9mzqZPHL-0ntuuw-54" value="&lt;div&gt;&lt;br&gt;&lt;/div&gt;" style="rounded=1;whiteSpace=wrap;html=1;rotation=-90;fillColor=#d5e8d4;strokeColor=#82b366;" vertex="1" parent="1">
          <mxGeometry x="435" y="295" width="10" height="20" as="geometry" />
        </mxCell>
        <mxCell id="PA0zK9mzqZPHL-0ntuuw-55" value="&lt;div&gt;&lt;br&gt;&lt;/div&gt;" style="rounded=1;whiteSpace=wrap;html=1;rotation=-90;fillColor=#f8cecc;strokeColor=#b85450;" vertex="1" parent="1">
          <mxGeometry x="465" y="295" width="10" height="20" as="geometry" />
        </mxCell>
        <mxCell id="PA0zK9mzqZPHL-0ntuuw-56" value="&lt;div&gt;&lt;br&gt;&lt;/div&gt;" style="rounded=1;whiteSpace=wrap;html=1;rotation=-90;fillColor=#d5e8d4;strokeColor=#82b366;" vertex="1" parent="1">
          <mxGeometry x="525" y="295" width="10" height="20" as="geometry" />
        </mxCell>
        <mxCell id="PA0zK9mzqZPHL-0ntuuw-57" value="&lt;div&gt;&lt;br&gt;&lt;/div&gt;" style="rounded=1;whiteSpace=wrap;html=1;rotation=-90;fillColor=#f8cecc;strokeColor=#b85450;" vertex="1" parent="1">
          <mxGeometry x="585" y="295" width="10" height="20" as="geometry" />
        </mxCell>
        <mxCell id="PA0zK9mzqZPHL-0ntuuw-58" value="&lt;div&gt;&lt;br&gt;&lt;/div&gt;" style="rounded=1;whiteSpace=wrap;html=1;rotation=-90;fillColor=#d5e8d4;strokeColor=#82b366;" vertex="1" parent="1">
          <mxGeometry x="615" y="295" width="10" height="20" as="geometry" />
        </mxCell>
        <mxCell id="PA0zK9mzqZPHL-0ntuuw-63" value="&lt;div&gt;&lt;br&gt;&lt;/div&gt;" style="rounded=1;whiteSpace=wrap;html=1;rotation=-90;fillColor=#f8cecc;strokeColor=#b85450;" vertex="1" parent="1">
          <mxGeometry x="375" y="326" width="10" height="20" as="geometry" />
        </mxCell>
        <mxCell id="PA0zK9mzqZPHL-0ntuuw-64" value="&lt;div&gt;&lt;br&gt;&lt;/div&gt;" style="rounded=1;whiteSpace=wrap;html=1;rotation=-90;fillColor=#d5e8d4;strokeColor=#82b366;" vertex="1" parent="1">
          <mxGeometry x="375" y="346" width="10" height="20" as="geometry" />
        </mxCell>
        <mxCell id="PA0zK9mzqZPHL-0ntuuw-65" value="= False" style="text;html=1;strokeColor=none;fillColor=none;align=left;verticalAlign=middle;whiteSpace=wrap;rounded=0;fontStyle=2" vertex="1" parent="1">
          <mxGeometry x="392" y="329" width="68" height="10" as="geometry" />
        </mxCell>
        <mxCell id="PA0zK9mzqZPHL-0ntuuw-67" value="= True" style="text;html=1;strokeColor=none;fillColor=none;align=left;verticalAlign=middle;whiteSpace=wrap;rounded=0;fontStyle=2" vertex="1" parent="1">
          <mxGeometry x="392" y="349" width="108" height="10" as="geometry" />
        </mxCell>
        <mxCell id="PA0zK9mzqZPHL-0ntuuw-93" value="" style="shape=curlyBracket;whiteSpace=wrap;html=1;rounded=1;flipH=1;labelPosition=right;verticalLabelPosition=middle;align=left;verticalAlign=middle;size=0.5;" vertex="1" parent="1">
          <mxGeometry x="640" y="110" width="20" height="70" as="geometry" />
        </mxCell>
        <mxCell id="PA0zK9mzqZPHL-0ntuuw-95" value="" style="shape=curlyBracket;whiteSpace=wrap;html=1;rounded=1;flipH=1;labelPosition=right;verticalLabelPosition=middle;align=left;verticalAlign=middle;size=0.5;" vertex="1" parent="1">
          <mxGeometry x="641" y="180" width="20" height="70" as="geometry" />
        </mxCell>
        <mxCell id="PA0zK9mzqZPHL-0ntuuw-96" value="Training" style="rounded=1;whiteSpace=wrap;html=1;fillColor=none;strokeColor=none;rotation=-90;" vertex="1" parent="1">
          <mxGeometry x="631" y="135" width="79" height="20" as="geometry" />
        </mxCell>
        <mxCell id="PA0zK9mzqZPHL-0ntuuw-99" value="Validation" style="rounded=1;whiteSpace=wrap;html=1;fillColor=none;strokeColor=none;rotation=-90;" vertex="1" parent="1">
          <mxGeometry x="631" y="205" width="79" height="20" as="geometry" />
        </mxCell>
        <mxCell id="PA0zK9mzqZPHL-0ntuuw-102" value="..." style="text;html=1;align=center;verticalAlign=middle;resizable=0;points=[];autosize=1;strokeColor=none;fillColor=none;" vertex="1" parent="1">
          <mxGeometry x="395" y="290" width="30" height="30" as="geometry" />
        </mxCell>
        <mxCell id="PA0zK9mzqZPHL-0ntuuw-103" value="..." style="text;html=1;align=center;verticalAlign=middle;resizable=0;points=[];autosize=1;strokeColor=none;fillColor=none;" vertex="1" parent="1">
          <mxGeometry x="485" y="290" width="30" height="30" as="geometry" />
        </mxCell>
        <mxCell id="PA0zK9mzqZPHL-0ntuuw-104" value="..." style="text;html=1;align=center;verticalAlign=middle;resizable=0;points=[];autosize=1;strokeColor=none;fillColor=none;" vertex="1" parent="1">
          <mxGeometry x="547.5" y="290" width="30" height="30" as="geometry" />
        </mxCell>
      </root>
    </mxGraphModel>
  </diagram>
</mxfile>
